<?xml version="1.0" encoding="utf-8"?>
<!-- Generator: Adobe Illustrator 15.1.1, SVG Export Plug-In . SVG Version: 6.00 Build 0)  -->
<!DOCTYPE svg PUBLIC "-//W3C//DTD SVG 1.1//EN" "http://www.w3.org/Graphics/SVG/1.1/DTD/svg11.dtd">
<svg version="1.1" id="Layer_1" xmlns="http://www.w3.org/2000/svg" xmlns:xlink="http://www.w3.org/1999/xlink" x="0px" y="0px"
	 width="160px" height="42px" viewBox="0 0 160 42" enable-background="new 0 0 160 42" xml:space="preserve">
<g>
	<rect x="22.35" y="11.84" fill="#004062" width="3.71" height="16.11"/>
	<path fill="#004062" d="M37.25,15.31c0,0-0.28-0.04-0.48-0.08c-0.32-0.08-0.73-0.08-1.13-0.08c-1.78,0-3.67,0.97-3.67,4v8.8h-3.71
		V11.84h3.71v2.18c0.65-1.17,2.22-2.55,4.4-2.55c0.29,0,0.69,0.04,0.89,0.08V15.31z"/>
	<path fill="#004062" d="M47.5,16.04c-0.89-0.77-2.22-1.29-3.27-1.29c-1.5,0-2.22,0.77-2.22,1.62c0,0.73,0.29,1.57,2.58,2.14
		c4.2,1.09,5.62,2.31,5.62,5.05c0,2.75-1.94,4.77-6.14,4.77c-2.42,0-4.65-0.73-6.51-2.34l2.06-2.83c1.29,1.33,2.91,1.9,4.44,1.9
		c1.61,0,2.34-0.68,2.34-1.62c0-0.85-0.69-1.45-2.95-2.06c-3.91-1.01-5.17-2.63-5.17-5.17c0-2.1,1.66-4.73,5.94-4.73
		c1.98,0,3.88,0.65,5.25,1.82L47.5,16.04z"/>
	<path fill="#004062" d="M60.39,24.55l1.25,2.99c-0.77,0.48-2.02,0.77-3.19,0.77c-3.6,0-5.33-1.86-5.33-5.29v-7.95h-2.26v-3.23h2.26
		V8.44h3.72v3.39h3.67v3.23h-3.67v8c0,1.37,0.73,2.02,1.81,2.02C59.38,25.08,59.82,24.92,60.39,24.55"/>
	<path fill="#004062" d="M112.52,24.55l1.25,2.99c-0.77,0.48-2.02,0.77-3.15,0.77c-3.63,0-5.37-1.86-5.37-5.29v-7.95h-2.26v-3.23
		h2.26V8.44h3.71v3.39h3.68v3.23h-3.68v8c0,1.37,0.69,2.02,1.82,2.02C111.51,25.08,111.96,24.92,112.52,24.55"/>
	<path fill="#004062" d="M94.31,25.4c2.06,0,4-1.86,4-4.2c-1.13-0.4-2.67-0.65-4.04-0.65c-2.34,0-3.43,1.29-3.43,2.5
		C90.84,24.6,92.33,25.4,94.31,25.4 M88.86,12.97c0,0,0.28-0.16,0.53-0.29c1.57-0.76,3.39-1.21,5.04-1.21c5.17,0,7.59,1.9,7.59,6.54
		v9.93h-3.71v-1.86c-1.05,1.5-2.54,2.22-4.93,2.22c-3.92,0-6.01-2.14-6.01-5.25c0-3.15,2.26-5.37,6.34-5.37
		c1.78,0,3.64,0.37,4.65,0.69v-0.29c0-2.22-1.09-3.23-4-3.23c-1.49,0-2.83,0.37-4.08,1.13L88.86,12.97z"/>
	<path fill="#004062" d="M121.04,25.4c2.06,0,4-1.86,4-4.2c-1.09-0.4-2.67-0.65-4.04-0.65c-2.34,0-3.43,1.29-3.43,2.5
		C117.57,24.6,119.06,25.4,121.04,25.4 M115.63,12.97c0,0,0.24-0.16,0.48-0.29c1.57-0.76,3.39-1.21,5.05-1.21
		c5.17,0,7.59,1.9,7.59,6.54v9.93h-3.72v-1.86c-1.05,1.5-2.54,2.22-4.88,2.22c-3.96,0-6.06-2.14-6.06-5.25
		c0-3.15,2.26-5.37,6.38-5.37c1.73,0,3.63,0.37,4.6,0.69v-0.29c0-2.22-1.09-3.23-4-3.23c-1.49,0-2.83,0.37-4.08,1.13L115.63,12.97z"
		/>
	<path fill="#004062" d="M75.25,24.39c4.77,0,7.83-3.19,7.83-7.59v-0.08c0-4.4-3.07-7.67-7.83-7.67h-4.44v15.35H75.25z M66.85,5.46
		h8.4c7.11,0,11.99,4.85,11.99,11.23v0.04c0,6.38-4.88,11.31-11.99,11.31h-8.4V5.46z"/>
	<polygon fill="#004062" points="5.31,5.46 21.09,5.46 21.09,9.09 9.26,9.09 9.26,15.23 19.64,15.23 19.64,18.82 9.26,18.82 
		9.26,28.03 5.31,28.03 	"/>
	<g>
		<path fill="#004062" d="M132.35,23.67c1.21,0,2.22,1.01,2.22,2.22c0,1.21-1.01,2.22-2.22,2.22c-1.25,0-2.22-1.01-2.22-2.22
			C130.13,24.68,131.1,23.67,132.35,23.67z M132.35,27.75c1.01,0,1.86-0.85,1.86-1.86c0-1.01-0.85-1.86-1.86-1.86
			c-1.05,0-1.9,0.85-1.9,1.86C130.45,26.9,131.3,27.75,132.35,27.75z M132.43,26.21h-0.48v0.68h-0.37v-2.02h0.85
			c0.4,0,0.73,0.16,0.73,0.65c0,0.32-0.16,0.53-0.37,0.61l0.4,0.76h-0.4L132.43,26.21z M131.95,25.2v0.65h0.48
			c0.24,0,0.36-0.08,0.36-0.32c0-0.2-0.12-0.32-0.36-0.32H131.95z"/>
	</g>
</g>
</svg>
